<?xml version="1.0" encoding="utf-8"?>
<!-- Generator: Adobe Illustrator 24.0.0, SVG Export Plug-In . SVG Version: 6.00 Build 0)  -->
<svg version="1.1" xmlns="http://www.w3.org/2000/svg" xmlns:xlink="http://www.w3.org/1999/xlink" x="0px" y="0px"
	 viewBox="0 0 300 300" style="enable-background:new 0 0 300 300;" xml:space="preserve">
<style type="text/css">
	.st0{fill:#231550;}
	.st1{fill:#7F5BA6;}
	.st2{fill:#FCB415;}
</style>
<g id="Layer_1">
</g>
<g id="Layer_2">
	<g>
		<g>
			<g>
				<path class="st0" d="M203.85,123.1c0,31.05-25.18,56.23-56.24,56.23c-11.93,0-22.99-3.72-32.09-10.05
					c-2.07-1.43-4.03-3.01-5.88-4.7l79.45-79.45c1.69,1.85,3.26,3.8,4.7,5.87C200.14,100.09,203.85,111.16,203.85,123.1z"/>
				<path class="st0" d="M165.95,184.95c0,2.21-1.79,4-4,4c-2.21,0-4-1.79-4-4c0-2.21,1.79-4,4-4
					C164.16,180.94,165.95,182.73,165.95,184.95z"/>
				<path class="st0" d="M109.65,164.57l-8.71,8.71c-3.33,3.33,1.4,8.63,4.97,5.57c0.19-0.17,0.38-0.34,0.56-0.52l9.06-9.06
					l78.27-78.28c-1.43-2.07-3.01-4.02-4.7-5.87L109.65,164.57z"/>
			</g>
			<g>
				<path class="st0" d="M185.59,81.61l-79.45,79.45c-1.7-1.85-3.26-3.81-4.7-5.88c-6.34-9.1-10.06-20.16-10.06-32.09
					c0-31.06,25.18-56.24,56.24-56.24c11.94,0,23,3.71,32.1,10.05C181.78,78.35,183.74,79.92,185.59,81.61z"/>
				
					<ellipse transform="matrix(0.2048 -0.9788 0.9788 0.2048 62.5526 218.26)" class="st0" cx="165.6" cy="70.63" rx="9.87" ry="9.87"/>
				<circle class="st0" cx="152.54" cy="54.55" r="6.22"/>
				<path class="st0" d="M104.79,146.93c0,3.7-3,6.7-6.7,6.7c-3.7,0-6.7-3-6.7-6.7c0-3.7,3-6.7,6.7-6.7
					C101.79,140.23,104.79,143.23,104.79,146.93z"/>
				<path class="st0" d="M185.59,81.61l8.7-8.7c3.33-3.33-1.39-8.64-4.97-5.57c-0.19,0.17-0.38,0.34-0.56,0.52l-9.05,9.05
					l-78.27,78.27c1.43,2.07,3,4.03,4.7,5.88L185.59,81.61z"/>
			</g>
			<g>
				<path class="st1" d="M101.55,77.82l25.6,25.6c4.39,4.39,11.49,4.39,15.88,0l0,0c4.39-4.39,4.39-11.49,0-15.88l-25.6-25.6
					c-4.39-4.39-11.49-4.39-15.88,0l0,0C97.17,66.32,97.17,73.43,101.55,77.82z"/>
				<path class="st2" d="M101.55,128.99L101.55,128.99c4.39,4.39,11.49,4.39,15.88,0l25.6-25.6c4.39-4.39,4.39-11.49,0-15.88
					c-4.39-4.39-11.49-4.39-15.88,0l-25.6,25.6C97.17,117.49,97.17,124.6,101.55,128.99z"/>
			</g>
			<g>
				<path class="st1" d="M193.17,168.37l-25.6-25.6c-4.39-4.39-11.49-4.39-15.88,0l0,0c-4.39,4.39-4.39,11.49,0,15.88l25.6,25.6
					c4.39,4.39,11.49,4.39,15.88,0h0C197.56,179.86,197.56,172.75,193.17,168.37z"/>
				<path class="st2" d="M193.17,117.2L193.17,117.2c-4.39-4.39-11.49-4.39-15.88,0l-25.6,25.6c-4.39,4.39-4.39,11.49,0,15.88
					c4.39,4.39,11.49,4.39,15.88,0l25.6-25.6C197.56,128.7,197.56,121.59,193.17,117.2z"/>
			</g>
		</g>
	</g>
	<g>
		<g>
			<g>
				<path class="st0" d="M59.68,219.66v2.12c0,4.95-0.91,11.26-9.9,11.26c-6.64,0-9.52-3.54-9.52-10.75v-19.23
					c0-6.82,3.4-10.41,9.68-10.41c8.28,0,9.63,5.45,9.63,10.58v2.46h-7.59v-3.35c0-2.16-0.46-3.25-2.03-3.25
					c-1.55,0-2.06,1.03-2.06,3.25v20.74c0,2.09,0.35,3.52,2.05,3.52c1.63,0,2.11-1.2,2.11-3.7v-3.26H59.68z"/>
				<path class="st0" d="M81.66,211.21v11.62c0,6.83-3.66,10.11-9.86,10.11c-6.31,0-9.66-3.36-9.66-10.11v-11.92
					c0-6.92,4.18-9.88,9.78-9.88C77.8,201.04,81.66,204.2,81.66,211.21z M69.69,210.55v12.7c0,2.01,0.56,3.38,2.25,3.38
					c1.67,0,2.17-1.3,2.17-3.46v-12.69c0-1.86-0.45-3.2-2.21-3.2C70.34,207.29,69.69,208.46,69.69,210.55z"/>
				<path class="st0" d="M104.28,191.52v32.28c0,4.4,0.02,7.03,0.08,8.66h-7.15c-0.12-0.8-0.23-2.2-0.26-2.82
					c-1.21,2.18-2.8,3.31-5.63,3.31c-4.92,0-6.56-3.81-6.56-9.89v-12.74c0-5.14,1.85-9.28,7.09-9.28c1.98,0,4.02,0.57,4.88,2.2
					v-11.72H104.28z M92.31,210.88v12.19c0,2.11,0.53,3.34,2.17,3.34c1.8,0,2.25-1.58,2.25-4.24v-10.38c0-2.75-0.31-4.22-2.21-4.22
					C92.92,207.58,92.31,208.74,92.31,210.88z"/>
				<path class="st0" d="M115.51,218.92v4.51c0,1.99,0.47,3.44,2.17,3.44c1.84,0,2.16-1.56,2.16-3.54v-0.7h7.31v0.43
					c0,4.15-1.27,9.88-9.44,9.88c-7.96,0-9.68-4.52-9.68-10.88v-10.48c0-5.09,2.35-10.55,9.7-10.55c6.51,0,9.51,3.89,9.51,10.51
					c0,1.99,0,5.5,0,7.37H115.51z M119.96,213.56v-3.04c0-2.39-0.52-3.48-2.19-3.48c-1.44,0-2.23,1.03-2.23,3.48v3.04H119.96z"/>
				<path class="st0" d="M130.74,212.02c0-5.3,0.02-7.83-0.08-10.51h7.2c0.08,0.63,0.22,3.22,0.22,4.62
					c1.11-3.61,3.59-5.07,6.47-5.09v9.08c-3.63,0-6.25,0.67-6.25,5.92v16.42h-7.55V212.02z"/>
				<path class="st2" d="M153.41,220.37v2.72c0,2.58,0.64,3.78,2.36,3.78c1.74,0,2.15-1.78,2.15-3.63c0-3.7-0.7-4.77-4.7-8.12
					c-4.42-3.74-6.69-5.96-6.69-11.73c0-5.6,1.85-10.76,9.28-10.76c7.89,0,9.05,5.38,9.05,9.87v2.26h-7.12v-2.35
					c0-2.38-0.39-3.56-1.88-3.56c-1.39,0-1.84,1.2-1.84,3.42c0,2.36,0.43,3.53,3.67,6.06c5.77,4.53,7.84,7.08,7.84,13.53
					c0,6.14-2.1,11.2-9.89,11.2c-7.48,0-9.61-4.51-9.61-10.32v-2.35H153.41z"/>
				<path class="st2" d="M176.43,191.52v12.39c1.08-1.72,2.89-2.88,5.74-2.88c4.78,0,6.27,3.46,6.27,7.92v23.5h-7.59v-21.64
					c0-1.87-0.37-3.25-2.09-3.25c-1.7,0-2.33,1.02-2.33,3.97v20.91h-7.55v-40.94H176.43z"/>
				<path class="st2" d="M210.97,225.38c0,2.77,0.04,5.72,0.18,7.08h-7.03c-0.18-0.51-0.39-1.8-0.45-2.28
					c-1.18,1.93-2.95,2.73-5.28,2.73c-4.73,0-6.61-4.35-6.61-9.08v-0.57c0-7.92,5.37-9.83,11.12-9.83c0.18,0,0.33,0,0.51,0v-3.6
					c0-2.08-0.3-3.03-1.69-3.03c-1.36,0-1.73,1.02-1.73,2.83v0.72h-7.27v-0.48c0-5.37,2.45-8.83,9.32-8.83
					c6.11,0,8.93,2.9,8.93,8.31V225.38z M203.49,218.72c-0.24,0-0.6,0-0.72,0c-2.21,0-3.67,0.98-3.67,4.21v0.39
					c0,2.14,0.7,3.25,2.16,3.25c1.53,0,2.23-1.07,2.23-4.22V218.72z"/>
				<path class="st2" d="M222.79,214.34h0.18c1.21-3.53,3.29-9.39,4.49-12.83h7.82l-5.23,11.4l5.66,19.54h-8.12l-2.84-12.38
					l-1.96,4.06v8.32h-7.43v-40.94h7.43V214.34z"/>
				<path class="st2" d="M237.34,201.51h7.55v30.95h-7.55V201.51z M237.38,191.52h7.55v6.83h-7.55V191.52z"/>
				<path class="st2" d="M249.27,232.46v-40.94h7.55v40.94H249.27z"/>
			</g>
		</g>
		<path class="st0" d="M248.09,194.99c0,2.76-2.24,5-5,5c-2.76,0-5-2.24-5-5c0-2.76,2.24-5,5-5
			C245.85,189.99,248.09,192.23,248.09,194.99z"/>
	</g>
</g>
</svg>
