<?xml version="1.0" encoding="utf-8"?>
<!-- Generator: Adobe Illustrator 24.0.0, SVG Export Plug-In . SVG Version: 6.00 Build 0)  -->
<svg version="1.1" id="Layer_2" xmlns="http://www.w3.org/2000/svg" xmlns:xlink="http://www.w3.org/1999/xlink" x="0px" y="0px"
	 viewBox="0 0 69.11 57.53" style="enable-background:new 0 0 69.11 57.53;" xml:space="preserve">
<style type="text/css">
	.st0{fill:#4564AF;}
	.st1{fill:#7F5BA6;}
	.st2{fill:#FCB415;}
	.st3{fill:#395BA9;}
</style>
<g>
	<g>
		<g>
			<path class="st0" d="M49.2,23.61c0,8.19-6.79,14.84-15.16,14.84c-3.22,0-6.2-0.98-8.65-2.65c-0.56-0.38-1.09-0.79-1.58-1.24
				l21.42-20.97c0.46,0.49,0.88,1,1.27,1.55C48.2,17.54,49.2,20.46,49.2,23.61z"/>
			<path class="st0" d="M38.99,39.93c0,0.58-0.48,1.06-1.08,1.06c-0.6,0-1.08-0.47-1.08-1.06c0-0.58,0.48-1.06,1.08-1.06
				C38.51,38.87,38.99,39.35,38.99,39.93z"/>
			<path class="st0" d="M23.81,34.55l-2.35,2.3c-0.9,0.88,0.38,2.28,1.34,1.47c0.05-0.04,0.1-0.09,0.15-0.14l2.44-2.39l21.1-20.66
				c-0.39-0.55-0.81-1.06-1.27-1.55L23.81,34.55z"/>
		</g>
		<g>
			<path class="st0" d="M44.28,12.66L22.87,33.63c-0.46-0.49-0.88-1.01-1.27-1.55c-1.71-2.4-2.71-5.32-2.71-8.47
				c0-8.2,6.79-14.84,15.16-14.84c3.22,0,6.2,0.98,8.65,2.65C43.26,11.8,43.78,12.21,44.28,12.66z"/>
			<ellipse class="st0" cx="38.89" cy="9.76" rx="2.66" ry="2.6"/>
			<ellipse class="st0" cx="35.37" cy="5.52" rx="1.68" ry="1.64"/>
			<path class="st0" d="M22.5,29.9c0,0.98-0.81,1.77-1.81,1.77c-1,0-1.81-0.79-1.81-1.77c0-0.98,0.81-1.77,1.81-1.77
				C21.69,28.13,22.5,28.92,22.5,29.9z"/>
			<path class="st0" d="M44.28,12.66l2.35-2.3c0.9-0.88-0.38-2.28-1.34-1.47c-0.05,0.04-0.1,0.09-0.15,0.14l-2.44,2.39L21.6,32.08
				c0.39,0.55,0.81,1.06,1.27,1.55L44.28,12.66z"/>
		</g>
		<g>
			<path class="st1" d="M21.63,11.66l6.9,6.76c1.18,1.16,3.1,1.16,4.28,0l0,0c1.18-1.16,1.18-3.03,0-4.19l-6.9-6.76
				c-1.18-1.16-3.1-1.16-4.28,0l0,0C20.45,8.63,20.45,10.5,21.63,11.66z"/>
			<path class="st2" d="M21.63,25.16L21.63,25.16c1.18,1.16,3.1,1.16,4.28,0l6.9-6.76c1.18-1.16,1.18-3.03,0-4.19
				c-1.18-1.16-3.1-1.16-4.28,0l-6.9,6.76C20.45,22.13,20.45,24.01,21.63,25.16z"/>
		</g>
		<g>
			<path class="st1" d="M46.33,35.56l-6.9-6.76c-1.18-1.16-3.1-1.16-4.28,0l0,0c-1.18,1.16-1.18,3.03,0,4.19l6.9,6.76
				c1.18,1.16,3.1,1.16,4.28,0h0C47.51,38.59,47.51,36.71,46.33,35.56z"/>
			<path class="st2" d="M46.33,22.05L46.33,22.05c-1.18-1.16-3.1-1.16-4.28,0l-6.9,6.76c-1.18,1.16-1.18,3.03,0,4.19
				c1.18,1.16,3.1,1.16,4.28,0l6.9-6.76C47.51,25.09,47.51,23.21,46.33,22.05z"/>
		</g>
	</g>
</g>
<g>
	<g>
		<g>
			<path class="st0" d="M10.34,49.44V50c0,1.3-0.25,2.97-2.67,2.97c-1.79,0-2.57-0.93-2.57-2.83v-5.07c0-1.8,0.92-2.75,2.61-2.75
				c2.23,0,2.6,1.44,2.6,2.79v0.65H8.27v-0.88c0-0.57-0.12-0.86-0.55-0.86c-0.42,0-0.55,0.27-0.55,0.86v5.47
				c0,0.55,0.09,0.93,0.55,0.93c0.44,0,0.57-0.32,0.57-0.98v-0.86H10.34z"/>
			<path class="st0" d="M16.27,47.21v3.07c0,1.8-0.99,2.67-2.66,2.67c-1.7,0-2.6-0.89-2.6-2.67v-3.14c0-1.83,1.13-2.61,2.64-2.61
				C15.23,44.53,16.27,45.36,16.27,47.21z M13.04,47.04v3.35c0,0.53,0.15,0.89,0.61,0.89c0.45,0,0.59-0.34,0.59-0.91v-3.35
				c0-0.49-0.12-0.84-0.6-0.84C13.22,46.17,13.04,46.48,13.04,47.04z"/>
			<path class="st0" d="M22.37,42.01v8.52c0,1.16,0.01,1.86,0.02,2.28h-1.93c-0.03-0.21-0.06-0.58-0.07-0.74
				c-0.33,0.58-0.75,0.87-1.52,0.87c-1.33,0-1.77-1-1.77-2.61v-3.36c0-1.36,0.5-2.45,1.91-2.45c0.53,0,1.08,0.15,1.32,0.58v-3.09
				H22.37z M19.14,47.12v3.22c0,0.56,0.14,0.88,0.58,0.88c0.48,0,0.61-0.42,0.61-1.12v-2.74c0-0.73-0.08-1.11-0.6-1.11
				C19.3,46.25,19.14,46.56,19.14,47.12z"/>
			<path class="st0" d="M25.39,49.24v1.19c0,0.52,0.13,0.91,0.58,0.91c0.5,0,0.58-0.41,0.58-0.93v-0.18h1.97v0.11
				c0,1.09-0.34,2.61-2.54,2.61c-2.15,0-2.61-1.19-2.61-2.87v-2.77c0-1.34,0.63-2.78,2.62-2.78c1.75,0,2.56,1.03,2.56,2.77
				c0,0.52,0,1.45,0,1.94H25.39z M26.59,47.83v-0.8c0-0.63-0.14-0.92-0.59-0.92c-0.39,0-0.6,0.27-0.6,0.92v0.8H26.59z"/>
			<path class="st0" d="M29.5,47.42c0-1.4,0-2.07-0.02-2.77h1.94c0.02,0.17,0.06,0.85,0.06,1.22c0.3-0.95,0.97-1.34,1.74-1.34v2.4
				c-0.98,0-1.68,0.18-1.68,1.56v4.33H29.5V47.42z"/>
			<path class="st0" d="M35.61,49.63v0.72c0,0.68,0.17,1,0.64,1c0.47,0,0.58-0.47,0.58-0.96c0-0.98-0.19-1.26-1.27-2.14
				c-1.19-0.99-1.8-1.57-1.8-3.1c0-1.48,0.5-2.84,2.5-2.84c2.13,0,2.44,1.42,2.44,2.6v0.6h-1.92v-0.62c0-0.63-0.11-0.94-0.51-0.94
				c-0.38,0-0.5,0.32-0.5,0.9c0,0.62,0.12,0.93,0.99,1.6c1.55,1.2,2.11,1.87,2.11,3.57c0,1.62-0.57,2.95-2.67,2.95
				c-2.02,0-2.59-1.19-2.59-2.72v-0.62H35.61z"/>
			<path class="st0" d="M41.81,42.01v3.27c0.29-0.45,0.78-0.76,1.55-0.76c1.29,0,1.69,0.91,1.69,2.09v6.2H43v-5.71
				c0-0.49-0.1-0.86-0.56-0.86c-0.46,0-0.63,0.27-0.63,1.05v5.52h-2.04v-10.8H41.81z"/>
			<path class="st0" d="M51.12,50.95c0,0.73,0.01,1.51,0.05,1.87h-1.89c-0.05-0.13-0.11-0.48-0.12-0.6
				c-0.32,0.51-0.8,0.72-1.42,0.72c-1.27,0-1.78-1.15-1.78-2.39v-0.15c0-2.09,1.45-2.59,3-2.59c0.05,0,0.09,0,0.14,0v-0.95
				c0-0.55-0.08-0.8-0.46-0.8c-0.37,0-0.47,0.27-0.47,0.75v0.19h-1.96v-0.13c0-1.42,0.66-2.33,2.51-2.33c1.65,0,2.41,0.77,2.41,2.19
				V50.95z M49.11,49.19c-0.06,0-0.16,0-0.19,0c-0.6,0-0.99,0.26-0.99,1.11v0.1c0,0.56,0.19,0.86,0.58,0.86
				c0.41,0,0.6-0.28,0.6-1.11V49.19z"/>
			<path class="st0" d="M54.31,48.03h0.05c0.33-0.93,0.89-2.48,1.21-3.38h2.11l-1.41,3.01l1.52,5.16H55.6l-0.77-3.27l-0.53,1.07
				v2.19h-2v-10.8h2V48.03z"/>
			<path class="st0" d="M58.23,44.65h2.04v8.17h-2.04V44.65z M58.24,42.01h2.04v1.8h-2.04V42.01z"/>
			<path class="st0" d="M61.44,52.81v-10.8h2.04v10.8H61.44z"/>
		</g>
	</g>
	<g>
		<g>
			<path class="st3" d="M10.34,49.44V50c0,1.3-0.25,2.97-2.67,2.97c-1.79,0-2.57-0.93-2.57-2.83v-5.07c0-1.8,0.92-2.75,2.61-2.75
				c2.23,0,2.6,1.44,2.6,2.79v0.65H8.27v-0.88c0-0.57-0.12-0.86-0.55-0.86c-0.42,0-0.55,0.27-0.55,0.86v5.47
				c0,0.55,0.09,0.93,0.55,0.93c0.44,0,0.57-0.32,0.57-0.98v-0.86H10.34z"/>
			<path class="st3" d="M16.27,47.21v3.07c0,1.8-0.99,2.67-2.66,2.67c-1.7,0-2.6-0.89-2.6-2.67v-3.14c0-1.83,1.13-2.61,2.64-2.61
				C15.23,44.53,16.27,45.36,16.27,47.21z M13.04,47.04v3.35c0,0.53,0.15,0.89,0.61,0.89c0.45,0,0.59-0.34,0.59-0.91v-3.35
				c0-0.49-0.12-0.84-0.6-0.84C13.22,46.17,13.04,46.48,13.04,47.04z"/>
			<path class="st3" d="M22.37,42.01v8.52c0,1.16,0.01,1.86,0.02,2.28h-1.93c-0.03-0.21-0.06-0.58-0.07-0.74
				c-0.33,0.58-0.75,0.87-1.52,0.87c-1.33,0-1.77-1-1.77-2.61v-3.36c0-1.36,0.5-2.45,1.91-2.45c0.53,0,1.08,0.15,1.32,0.58v-3.09
				H22.37z M19.14,47.12v3.22c0,0.56,0.14,0.88,0.58,0.88c0.48,0,0.61-0.42,0.61-1.12v-2.74c0-0.73-0.08-1.11-0.6-1.11
				C19.3,46.25,19.14,46.56,19.14,47.12z"/>
			<path class="st3" d="M25.39,49.24v1.19c0,0.52,0.13,0.91,0.58,0.91c0.5,0,0.58-0.41,0.58-0.93v-0.18h1.97v0.11
				c0,1.09-0.34,2.61-2.54,2.61c-2.15,0-2.61-1.19-2.61-2.87v-2.77c0-1.34,0.63-2.78,2.62-2.78c1.75,0,2.56,1.03,2.56,2.77
				c0,0.52,0,1.45,0,1.94H25.39z M26.59,47.83v-0.8c0-0.63-0.14-0.92-0.59-0.92c-0.39,0-0.6,0.27-0.6,0.92v0.8H26.59z"/>
			<path class="st3" d="M29.5,47.42c0-1.4,0-2.07-0.02-2.77h1.94c0.02,0.17,0.06,0.85,0.06,1.22c0.3-0.95,0.97-1.34,1.74-1.34v2.4
				c-0.98,0-1.68,0.18-1.68,1.56v4.33H29.5V47.42z"/>
			<path class="st2" d="M35.61,49.63v0.72c0,0.68,0.17,1,0.64,1c0.47,0,0.58-0.47,0.58-0.96c0-0.98-0.19-1.26-1.27-2.14
				c-1.19-0.99-1.8-1.57-1.8-3.1c0-1.48,0.5-2.84,2.5-2.84c2.13,0,2.44,1.42,2.44,2.6v0.6h-1.92v-0.62c0-0.63-0.11-0.94-0.51-0.94
				c-0.38,0-0.5,0.32-0.5,0.9c0,0.62,0.12,0.93,0.99,1.6c1.55,1.2,2.11,1.87,2.11,3.57c0,1.62-0.57,2.95-2.67,2.95
				c-2.02,0-2.59-1.19-2.59-2.72v-0.62H35.61z"/>
			<path class="st2" d="M41.81,42.01v3.27c0.29-0.45,0.78-0.76,1.55-0.76c1.29,0,1.69,0.91,1.69,2.09v6.2H43v-5.71
				c0-0.49-0.1-0.86-0.56-0.86c-0.46,0-0.63,0.27-0.63,1.05v5.52h-2.04v-10.8H41.81z"/>
			<path class="st2" d="M51.12,50.95c0,0.73,0.01,1.51,0.05,1.87h-1.89c-0.05-0.13-0.11-0.48-0.12-0.6
				c-0.32,0.51-0.8,0.72-1.42,0.72c-1.27,0-1.78-1.15-1.78-2.39v-0.15c0-2.09,1.45-2.59,3-2.59c0.05,0,0.09,0,0.14,0v-0.95
				c0-0.55-0.08-0.8-0.46-0.8c-0.37,0-0.47,0.27-0.47,0.75v0.19h-1.96v-0.13c0-1.42,0.66-2.33,2.51-2.33c1.65,0,2.41,0.77,2.41,2.19
				V50.95z M49.11,49.19c-0.06,0-0.16,0-0.19,0c-0.6,0-0.99,0.26-0.99,1.11v0.1c0,0.56,0.19,0.86,0.58,0.86
				c0.41,0,0.6-0.28,0.6-1.11V49.19z"/>
			<path class="st2" d="M54.31,48.03h0.05c0.33-0.93,0.89-2.48,1.21-3.38h2.11l-1.41,3.01l1.52,5.16H55.6l-0.77-3.27l-0.53,1.07
				v2.19h-2v-10.8h2V48.03z"/>
			<path class="st2" d="M58.23,44.65h2.04v8.17h-2.04V44.65z M58.24,42.01h2.04v1.8h-2.04V42.01z"/>
			<path class="st2" d="M61.44,52.81v-10.8h2.04v10.8H61.44z"/>
		</g>
	</g>
</g>
</svg>
